<?xml version="1.0" encoding="UTF-8"?>
<!-- Generator: Adobe Illustrator 18.1.0, SVG Export Plug-In . SVG Version: 6.00 Build 0)  -->
<svg version="1.1" id="Calque_1" xmlns="http://www.w3.org/2000/svg" xmlns:xlink="http://www.w3.org/1999/xlink" x="0px" y="0px" viewBox="457.4 -1474.6 200 70" enable-background="new 457.4 -1474.6 200 70" xml:space="preserve">
<g>
	<g>
		<defs>
			<rect id="SVGID_1_" x="462.3" y="-1471.6" width="190" height="63.9"/>
		</defs>
		<clipPath id="SVGID_2_">
			<use xlink:href="#SVGID_1_" overflow="visible"/>
		</clipPath>
		<g clip-path="url(#SVGID_2_)">
			<defs>
				<path id="SVGID_3_" d="M481.2-1436.2c2.2,0.9,4.7,1.4,7.3,1.4c14.1,0,13-14.3,13-14.3s-6.2,3-16.2,1.8c-2.7-0.3-5.8-1-9-2.1      c-4.3-1.5-9.1-3.9-14-7.4C462.3-1456.8,466.8-1442,481.2-1436.2"/>
			</defs>
			<clipPath id="SVGID_4_">
				<use xlink:href="#SVGID_3_" overflow="visible"/>
			</clipPath>
			
				<linearGradient id="SVGID_5_" gradientUnits="userSpaceOnUse" x1="135.033" y1="1647.6163" x2="136.033" y2="1647.6163" gradientTransform="matrix(10.8239 -18.7476 18.7476 10.8239 -31872.498 -16739.9805)">
				<stop offset="0" style="stop-color:#F09329"/>
				<stop offset="8.260000e-02" style="stop-color:#F09329"/>
				<stop offset="0.1338" style="stop-color:#EF8D2B"/>
				<stop offset="0.2052" style="stop-color:#EE7B30"/>
				<stop offset="0.2883" style="stop-color:#EB5D38"/>
				<stop offset="0.3803" style="stop-color:#E73443"/>
				<stop offset="0.4741" style="stop-color:#E20250"/>
				<stop offset="1" style="stop-color:#E20250"/>
			</linearGradient>
			<polygon clip-path="url(#SVGID_4_)" fill="url(#SVGID_5_)" points="492.5,-1417.3 512.2,-1451.3 472.4,-1474.3 452.8,-1440.3         "/>
		</g>
		<g clip-path="url(#SVGID_2_)">
			<defs>
				<path id="SVGID_6_" d="M512.1-1460.9l-4.4,0.9c-0.8,0.1-1.4,0.2-2,0.2c-2.1,0.1-3.6-0.4-4.2-0.6l-0.3-0.1      c-3.3-1.2-6.2-1.3-8.7,0.1c-2.8,1.8-3.3,4.6-4.2,7.2c-0.2,0.7-0.5,1.3-0.8,1.9c-0.7,1.2-1.4,2.6-2,4c-0.9,1.9-1.7,3.8-2.5,5.8      c-0.7,1.8-1.3,3.6-1.6,5.3c-0.2,0.9-0.4,1.7-0.4,2.5c-1.9,12.4,2.5,23.4,2.5,23.4c1.4,4.1,1.8,2.3,1.8,2.3l0-0.3      c-1.1-7.3-1.8-18.3,2-18.9c17.6-3.1,14.6-21.9,14.6-21.9c-1.6-8,7-9.6,7-9.6s14.8-3.8,14.8-3.8c0.4-0.1,0.5-0.5,0.4-0.9      C523.9-1463.4,512.2-1460.9,512.1-1460.9"/>
			</defs>
			<clipPath id="SVGID_7_">
				<use xlink:href="#SVGID_6_" overflow="visible"/>
			</clipPath>
			
				<linearGradient id="SVGID_8_" gradientUnits="userSpaceOnUse" x1="-43.0753" y1="1717.674" x2="-42.0753" y2="1717.674" gradientTransform="matrix(-33.9316 58.7713 -58.7713 -33.9316 100007.8281 59348.9297)">
				<stop offset="0" style="stop-color:#E10141"/>
				<stop offset="4.900000e-03" style="stop-color:#E10141"/>
				<stop offset="0.1466" style="stop-color:#E52C4C"/>
				<stop offset="0.2918" style="stop-color:#E85255"/>
				<stop offset="0.3682" style="stop-color:#E96159"/>
				<stop offset="0.375" style="stop-color:#E96356"/>
				<stop offset="0.4472" style="stop-color:#EB7440"/>
				<stop offset="0.5253" style="stop-color:#ED8030"/>
				<stop offset="0.6128" style="stop-color:#EE8726"/>
				<stop offset="0.7291" style="stop-color:#EE8923"/>
				<stop offset="0.7813" style="stop-color:#ED8320"/>
				<stop offset="0.8538" style="stop-color:#EA7116"/>
				<stop offset="0.9015" style="stop-color:#E7610E"/>
				<stop offset="1" style="stop-color:#E7610E"/>
			</linearGradient>
			<polygon clip-path="url(#SVGID_7_)" fill="url(#SVGID_8_)" points="490.2,-1483 454.1,-1420.6 512.7,-1386.7 548.7,-1449.2         "/>
		</g>
		<g clip-path="url(#SVGID_2_)">
			<defs>
				<path id="SVGID_9_" d="M476.4-1449.4c1.7,3.2,3.8,6,6.5,7.9c1,0.7,2,1.2,3.1,1.6c13.4,4.5,15.6-9.2,15.6-9.2s-5.7,0.2-13.4-4.1      c-5.5-3.1-12-8.7-17.9-18.4C470.3-1471.6,471.4-1458.9,476.4-1449.4"/>
			</defs>
			<clipPath id="SVGID_10_">
				<use xlink:href="#SVGID_9_" overflow="visible"/>
			</clipPath>
			
				<linearGradient id="SVGID_11_" gradientUnits="userSpaceOnUse" x1="-147.6223" y1="1758.908" x2="-146.6223" y2="1758.908" gradientTransform="matrix(-9.9009 17.1487 -17.1487 -9.9009 29191.3145 18485.9766)">
				<stop offset="0" style="stop-color:#E44366"/>
				<stop offset="1.900000e-03" style="stop-color:#E44366"/>
				<stop offset="0.1631" style="stop-color:#E9615C"/>
				<stop offset="0.3337" style="stop-color:#EC7755"/>
				<stop offset="0.5183" style="stop-color:#EF874F"/>
				<stop offset="0.7251" style="stop-color:#F1914C"/>
				<stop offset="1" style="stop-color:#F1944B"/>
			</linearGradient>
			<polygon clip-path="url(#SVGID_10_)" fill="url(#SVGID_11_)" points="478.1,-1485.2 454.6,-1444.5 493.7,-1421.9 517.2,-1462.6         "/>
		</g>
		<g clip-path="url(#SVGID_2_)">
			<defs>
				<rect id="SVGID_12_" x="462.3" y="-1471.6" width="190" height="63.9"/>
			</defs>
			<clipPath id="SVGID_13_">
				<use xlink:href="#SVGID_12_" overflow="visible"/>
			</clipPath>
			<path clip-path="url(#SVGID_13_)" fill="#E10141" d="M485.3-1447.3c-2.7-0.3-5.8-1-9-2.1c1.7,3.2,3.8,6,6.5,7.9     c1,0.7,2,1.2,3.1,1.6c13.4,4.5,15.6-9.2,15.6-9.2S495.3-1446.1,485.3-1447.3"/>
			<path clip-path="url(#SVGID_13_)" fill="#E75336" d="M485.3-1447.3c10,1.2,16.2-1.8,16.2-1.8s-5.7,0.2-13.4-4.1     c-0.2,0.7-0.5,1.3-0.8,1.9C486.7-1450.1,486-1448.7,485.3-1447.3"/>
			<path clip-path="url(#SVGID_13_)" fill="#E64B37" d="M501.5-1449.1c0,0-2.2,13.7-15.6,9.2c-1.1-0.4-2.2-0.9-3.1-1.6     c-0.7,1.8-1.3,3.6-1.6,5.3c2.2,0.9,4.7,1.4,7.3,1.4C502.6-1434.8,501.5-1449.1,501.5-1449.1"/>
			<path clip-path="url(#SVGID_13_)" fill="#D20E40" d="M485.3-1447.3c-0.9,1.9-1.7,3.8-2.5,5.8c1,0.7,2,1.2,3.1,1.6     c13.4,4.5,15.6-9.2,15.6-9.2S495.3-1446.1,485.3-1447.3"/>
			<path clip-path="url(#SVGID_13_)" fill="#FFFFFF" d="M550.2-1441.8c0,4.5-2.2,10.5-9.8,10.5c-7.3,0-9.6-5.7-9.6-10.3     c0-5,2.3-10.7,9.7-10.7C548.2-1452.3,550.2-1446.1,550.2-1441.8 M535.1-1442.1c0,1.7,0,9.2,5.3,9.2c5.5,0,5.5-7.2,5.5-8.7     c0-6.6-2.6-8.9-5.5-8.9C536.9-1450.5,535.1-1447.1,535.1-1442.1"/>
			<path clip-path="url(#SVGID_13_)" fill="#FFFFFF" d="M611.7-1441.8c0,4.5-2.2,10.5-9.8,10.5c-7.3,0-9.6-5.7-9.6-10.3     c0-5,2.3-10.7,9.7-10.7C609.8-1452.3,611.7-1446.1,611.7-1441.8 M596.6-1442.1c0,1.7,0,9.2,5.3,9.2c5.5,0,5.5-7.2,5.5-8.7     c0-6.6-2.6-8.9-5.5-8.9C598.5-1450.5,596.6-1447.1,596.6-1442.1"/>
			<path clip-path="url(#SVGID_13_)" fill="#FFFFFF" d="M633.6-1441.8c0,4.5-2.2,10.5-9.8,10.5c-7.3,0-9.6-5.7-9.6-10.3     c0-5,2.3-10.7,9.7-10.7C631.7-1452.3,633.6-1446.1,633.6-1441.8 M618.5-1442.1c0,1.7,0,9.2,5.3,9.2c5.5,0,5.5-7.2,5.5-8.7     c0-6.6-2.6-8.9-5.5-8.9C620.4-1450.5,618.5-1447.1,618.5-1442.1"/>
			<path clip-path="url(#SVGID_13_)" fill="#FFFFFF" d="M553.5-1451.7h4v12.5c0,1.8,0.3,2.6,0.5,3.1c0.6,1.4,1.8,2.1,3.4,2.1     c2.3,0,3.8-1.5,4.5-2.2v-15.5h4v19.8h-4v-2.3c-0.6,0.7-1.2,1.4-2,2c-1.4,0.9-3,1-3.7,1c-2.1,0-3.7-0.6-4.8-1.7     c-1.2-1.2-1.8-2.8-1.8-6.4L553.5-1451.7L553.5-1451.7z"/>
			<path clip-path="url(#SVGID_13_)" fill="#FFFFFF" d="M575.2-1451.7h7c1.6,0,3.2,0,4.7,1.1c1.1,0.8,1.9,2,1.9,3.7     c0,3.3-3,4.1-3.8,4.3c0.8,0.1,2,0.2,3.1,1c1.6,1.1,1.9,2.9,1.9,3.8c0,2.5-1.6,4-2.4,4.6c-1.5,1.1-3.3,1.3-5.8,1.3h-6.7     L575.2-1451.7L575.2-1451.7z M579.2-1442.9c0.9,0,2.1,0,3-0.3c1.6-0.4,2.9-1.5,2.9-3.1c0-1.5-1.2-2.7-3-2.9c-0.6-0.1-2.3,0-2.9,0     V-1442.9z M579.2-1434.4c2.9,0,3.7,0,4.6-0.3c1.3-0.5,2.6-1.7,2.6-3.3c0-3.6-4.5-3.6-5.9-3.6c-0.4,0-0.9,0-1.3,0L579.2-1434.4     L579.2-1434.4z"/>
			<polygon clip-path="url(#SVGID_13_)" fill="#FFFFFF" points="638.9,-1451.7 643.3,-1445.3 647.9,-1451.7 651.7,-1451.7      645.2,-1442.5 652.4,-1431.9 647.7,-1431.9 642.8,-1439.2 637.6,-1431.9 634.1,-1431.9 641.2,-1441.9 634.6,-1451.7      638.9,-1451.7    "/>
			<path clip-path="url(#SVGID_13_)" fill="#FFFFFF" d="M527.2-1451.7l-5.6,12.3c-0.4,0.9-0.6,1.2-1,2.2c-0.2-0.6-0.3-0.9-0.6-1.6     l-5.1-12.9h-4.2l7.7,18.5c-1,2.1-1.5,3.2-2.5,4.3c-2.3,2.4-4.6,1.7-6.2,1.9c0.2,0.6,1.1,0.9,1.7,1.1l0,0c0.1,0,0.2,0,0.2,0     c0.1,0,0.2,0,0.2,0v0c0.6,0.1,1.2,0.1,1.8,0.1c1.9,0,3.8-0.5,5.1-1.8c1-1,1.7-2.4,2.7-4.5l9.1-19.5H527.2"/>
		</g>
	</g>
</g>
</svg>